<?xml version="1.0" encoding="utf-8"?>
<!-- Generator: Adobe Illustrator 16.0.4, SVG Export Plug-In . SVG Version: 6.00 Build 0)  -->
<!DOCTYPE svg PUBLIC "-//W3C//DTD SVG 1.1//EN" "http://www.w3.org/Graphics/SVG/1.1/DTD/svg11.dtd">
<svg version="1.1" id="Layer_1" xmlns="http://www.w3.org/2000/svg" xmlns:xlink="http://www.w3.org/1999/xlink" x="0px" y="0px"
	 width="28.167px" height="28.417px" viewBox="0 0 28.167 28.417" enable-background="new 0 0 28.167 28.417" xml:space="preserve">
<g>
	<g>
		<linearGradient id="SVGID_1_" gradientUnits="userSpaceOnUse" x1="14.0566" y1="28.0493" x2="14.0566" y2="-0.005">
			<stop  offset="0" style="stop-color:#626366"/>
			<stop  offset="0.5" style="stop-color:#464648"/>
			<stop  offset="0.5" style="stop-color:#5D5E60"/>
			<stop  offset="1" style="stop-color:#535355"/>
		</linearGradient>
		<path fill="url(#SVGID_1_)" d="M22.876,14.223c0,6.853-3.958,12.429-8.82,12.429c-4.861,0-8.817-5.576-8.817-12.429
			c0-6.852,3.956-12.427,8.817-12.427C18.918,1.796,22.876,7.372,22.876,14.223z M14.056,0.801c-5.409,0-9.812,6.021-9.812,13.422
			c0,7.402,4.403,13.423,9.812,13.423c5.411,0,9.813-6.021,9.813-13.423C23.869,6.822,19.467,0.801,14.056,0.801z"/>
	</g>
	<g>
		<linearGradient id="SVGID_2_" gradientUnits="userSpaceOnUse" x1="14.0571" y1="28.0493" x2="14.0571" y2="-0.005">
			<stop  offset="0" style="stop-color:#626366"/>
			<stop  offset="0.5" style="stop-color:#464648"/>
			<stop  offset="0.5" style="stop-color:#5D5E60"/>
			<stop  offset="1" style="stop-color:#535355"/>
		</linearGradient>
		<path fill="url(#SVGID_2_)" d="M17.821,14.223c0,7.323-1.984,12.429-3.766,12.429c-1.78,0-3.764-5.105-3.764-12.429
			c0-7.325,1.983-12.427,3.764-12.427C15.837,1.796,17.821,6.898,17.821,14.223z M14.056,0.801c-3.091,0-4.759,6.916-4.759,13.422
			c0,6.508,1.668,13.423,4.759,13.423s4.762-6.915,4.762-13.423C18.817,7.716,17.146,0.801,14.056,0.801z"/>
	</g>
	<g>
		<linearGradient id="SVGID_3_" gradientUnits="userSpaceOnUse" x1="14.0571" y1="28.0493" x2="14.0571" y2="-0.005">
			<stop  offset="0" style="stop-color:#626366"/>
			<stop  offset="0.5" style="stop-color:#464648"/>
			<stop  offset="0.5" style="stop-color:#5D5E60"/>
			<stop  offset="1" style="stop-color:#535355"/>
		</linearGradient>
		<path fill="url(#SVGID_3_)" d="M26.486,14.223c0,6.853-5.576,12.429-12.431,12.429c-6.852,0-12.427-5.576-12.427-12.429
			c0-6.852,5.576-12.427,12.427-12.427C20.91,1.796,26.486,7.372,26.486,14.223z M14.056,0.801c-7.399,0-13.42,6.021-13.42,13.422
			c0,7.402,6.021,13.423,13.42,13.423c7.403,0,13.423-6.021,13.423-13.423C27.479,6.822,21.459,0.801,14.056,0.801z"/>
	</g>
	<g>
		<linearGradient id="SVGID_4_" gradientUnits="userSpaceOnUse" x1="14.0571" y1="28.0474" x2="14.0571" y2="-0.0025">
			<stop  offset="0" style="stop-color:#626366"/>
			<stop  offset="0.5" style="stop-color:#464648"/>
			<stop  offset="0.5" style="stop-color:#5D5E60"/>
			<stop  offset="1" style="stop-color:#535355"/>
		</linearGradient>
		<rect x="1.264" y="14.127" fill="url(#SVGID_4_)" width="25.587" height="0.995"/>
	</g>
	<g>
		<linearGradient id="SVGID_5_" gradientUnits="userSpaceOnUse" x1="14.0576" y1="28.0415" x2="14.0576" y2="-0.0017">
			<stop  offset="0" style="stop-color:#626366"/>
			<stop  offset="0.5" style="stop-color:#464648"/>
			<stop  offset="0.5" style="stop-color:#5D5E60"/>
			<stop  offset="1" style="stop-color:#535355"/>
		</linearGradient>
		<rect x="2.911" y="7.418" fill="url(#SVGID_5_)" width="22.293" height="0.995"/>
	</g>
	<g>
		<linearGradient id="SVGID_6_" gradientUnits="userSpaceOnUse" x1="14.0576" y1="28.0474" x2="14.0576" y2="-0.0012">
			<stop  offset="0" style="stop-color:#626366"/>
			<stop  offset="0.5" style="stop-color:#464648"/>
			<stop  offset="0.5" style="stop-color:#5D5E60"/>
			<stop  offset="1" style="stop-color:#535355"/>
		</linearGradient>
		<rect x="2.911" y="20.84" fill="url(#SVGID_6_)" width="22.293" height="0.993"/>
	</g>
</g>
</svg>
