<?xml version="1.0" encoding="utf-8"?>
<!-- Generator: Adobe Illustrator 16.0.4, SVG Export Plug-In . SVG Version: 6.00 Build 0)  -->
<!DOCTYPE svg PUBLIC "-//W3C//DTD SVG 1.1//EN" "http://www.w3.org/Graphics/SVG/1.1/DTD/svg11.dtd">
<svg version="1.1" id="Layer_1" xmlns="http://www.w3.org/2000/svg" xmlns:xlink="http://www.w3.org/1999/xlink" x="0px" y="0px"
	 width="28.089px" height="25.952px" viewBox="0 0 28.089 25.952" enable-background="new 0 0 28.089 25.952" xml:space="preserve">
<g>
	<linearGradient id="SVGID_1_" gradientUnits="userSpaceOnUse" x1="14.0449" y1="25.9521" x2="14.0449" y2="0">
		<stop  offset="0" style="stop-color:#626366"/>
		<stop  offset="0.5" style="stop-color:#464648"/>
		<stop  offset="0.5" style="stop-color:#5D5E60"/>
		<stop  offset="1" style="stop-color:#535355"/>
	</linearGradient>
	<path fill="url(#SVGID_1_)" d="M7.607,16.041l9.246-9.244l-0.078,0.068c0.12-0.094,3.012-2.313,5.254-0.068
		c2.155,2.155,0.208,4.397-0.022,4.646l0.022-0.024L10.843,22.604l0.059-0.052c-0.169,0.14-4.177,3.421-7.546,0.052
		c-3.257-3.256-0.341-6.402,0.002-6.75c-0.002,0.002,12.2-12.202,12.2-12.202l-0.049,0.046c0.196-0.167,4.878-4.089,8.925-0.046
		c4.034,4.036,0.132,8.54-0.037,8.73l0.037-0.039l-9.707,9.706l1.295,1.295l9.707-9.706l0.016-0.019l0.019-0.02
		c1.83-2.046,4.178-7.027-0.034-11.241c-4.206-4.206-9.308-1.867-11.417-0.045l-0.024,0.021l-0.022,0.024L2.061,14.563
		c-1.614,1.614-3.692,5.644,0,9.336c3.651,3.651,8.152,1.631,10.021,0.052l0.029-0.025l0.026-0.026l11.186-11.187
		c1.221-1.298,2.764-4.449,0-7.211c-2.723-2.723-6.219-1.236-7.688-0.067l-0.041,0.032l-0.037,0.035l-9.245,9.246L7.607,16.041z"/>
</g>
</svg>
