<?xml version="1.0" encoding="utf-8"?>
<!-- Generator: Adobe Illustrator 16.0.4, SVG Export Plug-In . SVG Version: 6.00 Build 0)  -->
<!DOCTYPE svg PUBLIC "-//W3C//DTD SVG 1.1//EN" "http://www.w3.org/Graphics/SVG/1.1/DTD/svg11.dtd">
<svg version="1.1" id="Lnik" xmlns="http://www.w3.org/2000/svg" xmlns:xlink="http://www.w3.org/1999/xlink" x="0px" y="0px"
	 width="59.924px" height="14.976px" viewBox="0 0 59.924 14.976" enable-background="new 0 0 59.924 14.976" xml:space="preserve">
<path id="Left" fill="#414042" d="M24.247,9.781c-0.592,0.599-1.41,0.971-2.317,0.97H8.161C6.36,10.75,4.899,9.29,4.9,7.488
	c0-1.801,1.461-3.261,3.261-3.261H21.93c0.901,0.001,1.715,0.366,2.306,0.955V5.178h5.752C29.679,2.267,27.217,0,24.226,0L5.866,0
	C2.664,0,0.068,2.595,0.069,5.796L0.068,9.179c0,3.2,2.596,5.796,5.796,5.797l18.361-0.001c2.997,0,5.465-2.277,5.766-5.197
	L24.247,9.781z"/>
<path id="Right" fill="#414042" d="M54.125,0L35.767,0c-2.993,0-5.454,2.267-5.765,5.177h5.759c0.589-0.586,1.402-0.95,2.3-0.951
	l13.77,0.002c1.801-0.001,3.261,1.459,3.261,3.261c0.001,1.801-1.46,3.262-3.261,3.262L38.062,10.75
	c-0.908,0.002-1.727-0.371-2.318-0.969H30c0.301,2.919,2.768,5.195,5.768,5.195h18.359c3.202,0,5.797-2.595,5.797-5.796V5.797
	C59.924,2.595,57.327,0,54.125,0z"/>
<path id="Center" fill="#414042" d="M44.972,7.487c0,1.165-1.115,2.111-2.49,2.111L17.563,9.597
	c-1.377,0.001-2.491-0.945-2.491-2.11l0,0c0-1.162,1.114-2.108,2.491-2.108h24.918C43.856,5.378,44.972,6.323,44.972,7.487
	L44.972,7.487z"/>
</svg>
